<?xml version="1.0" encoding="UTF-8"?>
<svg width="30px" height="30px" viewBox="0 0 30 30" version="1.1" xmlns="http://www.w3.org/2000/svg" xmlns:xlink="http://www.w3.org/1999/xlink">
    <!-- Generator: Sketch 52 (66869) - http://www.bohemiancoding.com/sketch -->
    <title>Path</title>
    <desc>Created with Sketch.</desc>
    <g id="Page-1" stroke="none" stroke-width="1" fill="none" fill-rule="evenodd">
        <g id="banner2" transform="translate(-80.000000, -425.000000)">
            <g id="Group-8" transform="translate(75.000000, 381.000000)">
                <g id="discord-fill" transform="translate(5.000000, 44.000000)">
                    <polygon id="Path" points="0 0 30 0 30 30 0 30"></polygon>
                    <path d="M12.595,13.75 C13.345,13.75 13.9525,14.3125 13.93875,15 C13.93875,15.6875 13.34625,16.25 12.595,16.25 C11.8575,16.25 11.25,15.6875 11.25,15 C11.25,14.3125 11.84375,13.75 12.595,13.75 Z M17.405,13.75 C18.15625,13.75 18.75,14.3125 18.75,15 C18.75,15.6875 18.15625,16.25 17.405,16.25 C16.6675,16.25 16.06125,15.6875 16.06125,15 C16.06125,14.3125 16.65375,13.75 17.405,13.75 Z M23.61375,2.5 C25.0675,2.5 26.25,3.7075 26.25,5.20375 L26.25,28.75 L23.48625,26.25625 L21.93,24.78625 L20.28375,23.22375 L20.96625,25.6525 L6.38625,25.6525 C4.9325,25.6525 3.75,24.445 3.75,22.94875 L3.75,5.20375 C3.75,3.7075 4.9325,2.5 6.38625,2.5 L23.6125,2.5 L23.61375,2.5 Z M18.65125,19.64125 C21.4925,19.55 22.58625,17.64625 22.58625,17.64625 C22.58625,13.42 20.73375,9.99375 20.73375,9.99375 C18.88375,8.5775 17.12125,8.61625 17.12125,8.61625 L16.94125,8.82625 C19.1275,9.50875 20.1425,10.49375 20.1425,10.49375 C18.9488351,9.82123497 17.6333001,9.39292123 16.2725,9.23375 C15.409298,9.13625474 14.5374145,9.14465034 13.67625,9.25875 C13.59875,9.25875 13.53375,9.2725 13.4575,9.285 C13.0075,9.325 11.91375,9.495 10.53875,10.1125 C10.06375,10.335 9.78,10.49375 9.78,10.49375 C9.78,10.49375 10.8475,9.45625 13.16125,8.77375 L13.0325,8.61625 C13.0325,8.61625 11.27125,8.5775 9.42,9.995 C9.42,9.995 7.56875,13.42 7.56875,17.64625 C7.56875,17.64625 8.64875,19.54875 11.49,19.64125 C11.49,19.64125 11.965,19.05125 12.3525,18.5525 C10.71875,18.0525 10.1025,17.0025 10.1025,17.0025 C10.1025,17.0025 10.23,17.095 10.46125,17.22625 C10.47375,17.23875 10.48625,17.2525 10.5125,17.265 C10.55125,17.2925 10.59,17.305 10.62875,17.33125 C10.95,17.515 11.27125,17.65875 11.56625,17.7775 C12.09375,17.9875 12.72375,18.1975 13.4575,18.3425 C14.556649,18.5579501 15.6867646,18.5621923 16.7875,18.355 C17.4286468,18.2405657 18.0541666,18.0513575 18.65125,17.79125 C19.10125,17.62 19.6025,17.37 20.13,17.01625 C20.13,17.01625 19.4875,18.0925 17.8025,18.57875 C18.18875,19.0775 18.6525,19.64125 18.6525,19.64125 L18.65125,19.64125 Z" id="Shape" fill="#FFFFFF" fill-rule="nonzero"></path>
                </g>
            </g>
        </g>
    </g>
</svg>