<?xml version="1.0" encoding="UTF-8"?>
<svg width="30px" height="30px" viewBox="0 0 30 30" version="1.1" xmlns="http://www.w3.org/2000/svg" xmlns:xlink="http://www.w3.org/1999/xlink">
    <!-- Generator: Sketch 52 (66869) - http://www.bohemiancoding.com/sketch -->
    <title>Path</title>
    <desc>Created with Sketch.</desc>
    <g id="Page-1" stroke="none" stroke-width="1" fill="none" fill-rule="evenodd">
        <g id="banner2" transform="translate(-290.000000, -425.000000)">
            <g id="Group-8" transform="translate(75.000000, 381.000000)">
                <g id="docs" transform="translate(215.000000, 44.000000)">
                    <polygon id="Path" points="0 0 30 0 30 30 0 30"></polygon>
                    <path d="M2.5,4.99125 C2.50475978,4.30819443 3.05694957,3.75544799 3.74,3.75 L26.26,3.75 C26.945,3.75 27.5,4.30625 27.5,4.99125 L27.5,25.00875 C27.4952403,25.6918056 26.9430504,26.244552 26.26,26.25 L3.74,26.25 C3.05496476,26.2493101 2.49999965,25.6937856 2.5,25.00875 L2.5,4.99125 Z M7.5,18.75 L7.5,21.25 L22.5,21.25 L22.5,18.75 L7.5,18.75 Z M7.5,8.75 L7.5,16.25 L15,16.25 L15,8.75 L7.5,8.75 Z M17.5,8.75 L17.5,11.25 L22.5,11.25 L22.5,8.75 L17.5,8.75 Z M17.5,13.75 L17.5,16.25 L22.5,16.25 L22.5,13.75 L17.5,13.75 Z M10,11.25 L12.5,11.25 L12.5,13.75 L10,13.75 L10,11.25 Z" id="Shape" fill="#FFFFFF" fill-rule="nonzero"></path>
                </g>
            </g>
        </g>
    </g>
</svg>